<?xml version="1.0" encoding="UTF-8" standalone="no"?>
<!DOCTYPE svg PUBLIC "-//W3C//DTD SVG 20010904//EN" "http://www.w3.org/TR/2001/REC-SVG-20010904/DTD/svg10.dtd">
<svg version="1.0" xmlns="http://www.w3.org/2000/svg" width="611.000000pt" height="612.000000pt" viewBox="0 0 611.000000 612.000000" preserveAspectRatio="xMidYMid meet">

<g transform="translate(0.000000,612.000000) scale(0.100000,-0.100000)" fill="#000000" stroke="none">
<path d="M2184 5345 c-38 -16 -54 -36 -60 -77 -5 -27 -1 -41 20 -65 46 -54 104 -53 152 4 20 23 30 25 150 33 184 13 851 12 1081 -1 l195 -11 28 -31 c23 -26 36 -32 70 -32 34 0 47 6 66 28 29 34 32 95 7 126 -39 46 -120 42 -155 -8 -14 -20 -30 -23 -174 -33 -186 -12 -996 -5 -1152 11 -84 8 -106 14 -120 31 -24 29 -72 40 -108 25z"/>
<path d="M2211 5029 c-55 -54 -36 -145 35 -175 46 -19 89 -8 126 35 29 33 38 37 102 43 39 4 260 10 491 14 462 7 714 -3 741 -31 46 -45 116 -18 122 48 6 71 -73 104 -127 53 -24 -22 -38 -25 -203 -35 -213 -13 -816 -14 -979 -2 -114 9 -116 10 -151 45 -31 31 -43 36 -81 36 -37 0 -51 -5 -76 -31z"/>
<path d="M2440 4789 c-19 -4 -47 -21 -62 -38 -58 -65 -27 -173 58 -201 54 -18 117 9 141 60 18 37 19 38 93 49 175 25 332 34 610 35 262 1 299 -1 332 -17 44 -21 84 -10 98 28 25 67 -53 114 -108 66 -42 -36 -347 -64 -719 -65 l-282 -1 -33 38 c-37 43 -77 57 -128 46z"/>
<path d="M3444 4566 c-14 -37 -287 -95 -481 -103 l-132 -6 -26 31 c-86 102 -255 37 -255 -98 0 -40 22 -81 60 -114 25 -20 42 -26 81 -26 28 0 63 7 79 15 32 17 70 72 70 104 0 26 11 30 151 65 140 34 336 59 438 54 74 -3 85 -1 97 17 21 31 -2 69 -44 73 -22 2 -34 -2 -38 -12z"/>
<path d="M4120 4320 l0 -170 48 0 c77 0 77 1 79 157 2 170 -3 183 -77 183 l-50 0 0 -170z m90 0 l0 -140 -25 0 -25 0 0 140 0 140 25 0 25 0 0 -140z"/>
<path d="M4289 4478 c0 -7 -1 -84 -2 -170 -2 -149 -1 -158 17 -158 18 0 19 7 14 138 l-6 137 27 -110 c15 -60 31 -122 34 -137 5 -19 14 -28 27 -28 19 0 20 7 20 170 0 151 -2 170 -16 170 -15 0 -16 -14 -12 -137 l5 -138 -34 138 c-30 115 -38 137 -54 137 -11 0 -19 -6 -20 -12z"/>
<path d="M4496 4458 c-12 -72 -36 -260 -36 -283 0 -16 6 -25 15 -25 10 0 15 10 15 28 0 54 11 72 40 72 26 0 29 -4 35 -50 5 -33 12 -50 21 -50 18 0 18 -1 -6 175 -11 81 -20 152 -20 156 0 5 -13 9 -30 9 -25 0 -30 -4 -34 -32z m49 -110 c7 -67 7 -68 -17 -68 l-24 0 10 81 c10 91 21 87 31 -13z"/>
<path d="M4736 4474 c-13 -12 -16 -41 -16 -150 0 -75 5 -144 10 -155 7 -13 21 -19 43 -19 44 0 56 10 61 53 4 31 2 37 -15 37 -15 0 -19 -7 -19 -31 0 -26 -3 -30 -22 -27 -22 3 -23 7 -26 118 -3 135 1 160 28 160 15 0 20 -7 20 -26 0 -19 4 -25 18 -22 18 4 19 42 0 66 -15 17 -63 15 -82 -4z"/>
<path d="M4891 4476 c-18 -21 -17 -306 1 -317 26 -17 87 -10 98 10 5 11 10 80 10 155 0 109 -3 138 -16 150 -19 20 -78 21 -93 2z m74 -156 l0 -135 -27 -3 -28 -3 0 141 0 141 28 -3 27 -3 0 -135z"/>
<path d="M5040 4321 c0 -151 2 -171 16 -171 14 0 16 16 12 135 -2 74 -3 135 -2 135 1 0 17 -61 35 -135 30 -125 34 -135 56 -135 l23 0 0 170 c0 144 -2 170 -15 170 -13 0 -15 -22 -16 -132 l-1 -133 -32 130 c-28 116 -34 130 -54 133 l-22 3 0 -170z"/>
<path d="M5232 4478 c-8 -8 -12 -58 -12 -158 0 -159 3 -170 55 -170 40 0 55 16 55 57 0 23 -5 33 -15 33 -10 0 -15 -10 -15 -30 0 -25 -4 -30 -25 -30 l-25 0 0 141 c0 140 0 140 23 137 14 -2 23 -11 25 -25 2 -13 10 -23 18 -23 19 0 18 44 -2 64 -18 19 -65 21 -82 4z"/>
<path d="M5370 4320 l0 -170 45 0 c33 0 45 4 45 15 0 10 -10 15 -30 15 l-30 0 0 70 c0 68 1 70 25 70 16 0 25 6 25 15 0 9 -9 15 -25 15 -24 0 -25 3 -25 55 0 54 0 55 30 55 20 0 30 5 30 15 0 11 -12 15 -45 15 l-45 0 0 -170z"/>
<path d="M5500 4320 c0 -144 2 -170 15 -170 12 0 15 14 15 69 l0 70 38 3 37 3 5 79 c6 99 -3 116 -66 116 l-44 0 0 -170z m80 70 c0 -68 -1 -70 -25 -70 -24 0 -25 2 -25 70 0 68 1 70 25 70 24 0 25 -2 25 -70z"/>
<path d="M5646 4475 c-4 -10 1 -15 14 -15 19 0 20 -8 21 -147 1 -82 1 -151 0 -155 0 -5 8 -8 19 -8 19 0 20 7 20 155 0 148 1 155 20 155 11 0 20 7 20 15 0 11 -13 15 -54 15 -39 0 -55 -4 -60 -15z"/>
<path d="M3322 4378 c-7 -7 -12 -21 -12 -32 0 -20 -42 -56 -82 -71 -10 -4 -32 5 -59 24 -33 25 -52 31 -91 31 -83 0 -138 -42 -159 -121 -40 -148 140 -259 255 -159 45 40 59 79 54 144 -4 50 -3 54 26 73 52 34 59 37 89 35 36 -3 57 13 57 42 0 28 -18 46 -45 46 -12 0 -26 -5 -33 -12z"/>
<path d="M4130 4110 c-1 -3 -4 -18 -6 -34 -2 -20 0 -26 7 -19 6 6 9 21 6 34 -2 13 -5 22 -7 19z"/>
<path d="M4164 4075 c1 -32 12 -32 18 0 3 16 1 25 -7 25 -7 0 -12 -11 -11 -25z"/>
<path d="M2736 4024 c-9 -8 -16 -24 -16 -33 0 -32 25 -44 78 -36 59 8 224 -24 318 -61 57 -23 66 -31 83 -70 28 -62 70 -86 143 -81 62 4 96 25 124 79 57 109 -60 238 -179 199 -34 -12 -89 -63 -99 -92 -11 -34 -354 47 -385 91 -17 24 -46 26 -67 4z"/>
<path d="M2602 3848 c-16 -16 -15 -63 1 -75 6 -6 46 -11 87 -11 129 -1 456 -72 665 -144 59 -21 72 -30 91 -63 46 -83 141 -97 201 -31 26 28 33 44 33 76 0 86 -55 137 -139 127 -37 -4 -52 -12 -78 -42 l-31 -36 -84 11 c-242 33 -610 133 -664 182 -23 21 -64 24 -82 6z"/>
<path d="M2436 3659 c-30 -24 -35 -69 -10 -93 17 -17 74 -22 90 -7 19 18 504 -79 791 -158 270 -75 313 -92 339 -132 76 -121 253 -27 193 104 -28 63 -131 75 -178 21 l-23 -28 -87 13 c-219 31 -574 112 -840 192 -134 41 -169 55 -191 79 -33 35 -48 37 -84 9z"/>
<path d="M2333 3440 c-46 -19 -57 -86 -20 -120 18 -18 29 -20 62 -15 70 11 116 7 280 -25 418 -82 1065 -261 1065 -295 0 -21 59 -65 86 -65 62 0 114 60 100 116 -17 68 -109 100 -152 53 -23 -26 -51 -24 -303 27 -357 71 -1000 246 -1009 274 -14 41 -69 67 -109 50z"/>
<path d="M2265 3168 c-58 -32 -73 -105 -30 -152 31 -34 94 -39 126 -10 21 19 43 18 194 -10 346 -65 723 -160 1020 -257 63 -20 99 -38 118 -59 43 -45 96 -38 126 17 34 66 -52 133 -115 89 -17 -12 -37 -11 -154 10 -333 58 -723 155 -1026 255 -111 36 -123 43 -135 71 -8 19 -25 36 -45 44 -40 17 -52 17 -79 2z"/>
<path d="M2345 2883 c-29 -7 -56 -33 -71 -69 -17 -41 -3 -96 33 -124 34 -26 101 -27 135 -1 24 20 26 20 164 0 393 -56 941 -192 991 -245 27 -29 62 -31 91 -4 55 52 -9 137 -76 101 -47 -25 -616 80 -974 180 l-147 41 -13 41 c-9 27 -25 49 -47 64 -34 23 -47 25 -86 16z"/>
<path d="M2510 2604 c-52 -22 -75 -59 -74 -118 0 -43 5 -53 37 -82 53 -49 111 -49 170 -3 l37 30 148 -20 c249 -36 568 -117 603 -154 34 -37 99 -16 99 33 0 34 -34 51 -86 45 -85 -11 -356 35 -589 100 -169 47 -175 50 -175 79 0 35 -45 84 -88 96 -45 12 -39 12 -82 -6z"/>
<path d="M2720 2341 c-127 -67 -95 -249 48 -268 52 -7 109 20 135 65 l20 34 75 -6 c114 -11 290 -59 308 -85 24 -34 73 -27 87 13 14 37 -50 75 -79 46 -12 -12 -132 2 -248 29 -103 25 -136 37 -136 53 0 6 -10 32 -21 56 -35 72 -119 101 -189 63z"/>
<path d="M3005 2076 c-63 -28 -100 -101 -90 -177 7 -47 6 -48 -34 -74 -32 -22 -47 -26 -75 -21 -66 13 -95 -64 -33 -87 27 -10 54 8 60 41 4 21 16 33 44 45 56 24 65 24 102 -2 51 -37 119 -40 174 -8 53 31 77 76 77 142 0 114 -119 188 -225 141z"/>
<path d="M3365 1831 c-35 -16 -64 -50 -76 -91 -11 -35 -18 -41 -58 -54 -147 -48 -475 -88 -541 -66 -49 16 -80 1 -80 -38 0 -53 47 -69 98 -33 52 38 357 91 518 91 62 0 69 -2 107 -36 37 -34 43 -36 94 -32 42 4 60 11 83 33 88 84 41 223 -77 231 -26 2 -57 0 -68 -5z"/>
<path d="M3572 1512 c-15 -15 -31 -36 -37 -45 -8 -14 -36 -21 -125 -32 -195 -23 -469 -37 -662 -34 -154 4 -187 7 -208 22 -30 21 -74 22 -94 1 -20 -19 -21 -64 -2 -89 16 -23 69 -24 93 -2 45 39 680 81 926 61 65 -6 77 -10 88 -30 6 -13 27 -30 45 -39 49 -23 96 -11 135 33 28 31 31 40 26 81 -7 63 -49 101 -113 101 -37 0 -51 -5 -72 -28z"/>
<path d="M3778 1234 c-15 -8 -34 -27 -43 -43 l-14 -29 -138 -8 c-178 -11 -864 -9 -1012 3 -86 8 -117 14 -126 26 -20 27 -57 36 -91 22 -67 -28 -55 -123 16 -140 18 -4 37 1 62 19 34 23 49 25 250 35 265 14 604 14 849 1 l187 -10 35 -35 c29 -29 42 -35 77 -35 107 0 141 149 45 195 -41 19 -62 19 -97 -1z"/>
<path d="M2293 938 c-41 -11 -63 -42 -63 -89 0 -95 103 -128 172 -55 22 23 33 25 182 35 205 14 843 14 1054 0 l164 -11 28 -31 c59 -66 160 -28 160 61 0 94 -96 126 -170 57 -23 -22 -37 -24 -215 -34 -246 -14 -758 -14 -995 0 -172 10 -187 12 -210 34 -35 33 -69 44 -107 33z"/>
</g>
</svg>