<svg xmlns="http://www.w3.org/2000/svg" width="509" height="509" fill="none" viewBox="0 0 509 509">
    <g clip-path="url(#clip0)">
        <path fill="#5C546A" d="M171.765 236.647L188.734 219.678C191.859 216.553 196.922 216.553 200.046 219.678L232.046 251.678C235.171 254.803 235.171 259.866 232.046 262.991L215.077 279.96C211.96 283.077 207.858 284.64 203.764 284.64C199.662 284.64 195.561 283.077 192.444 279.96L171.772 259.28C168.749 256.264 167.077 252.249 167.077 247.975C167.078 243.693 168.742 239.67 171.765 236.647Z"/>
        <path fill="#868491" d="M203.968 181.053C206.71 180.397 209.562 181.194 211.531 183.17L268.164 239.803C270.133 241.764 270.937 244.608 270.289 247.311C269.648 250.014 267.648 252.194 265.008 253.061L226.391 268.647L183.079 225.335L198.243 186.429C199.085 183.756 201.257 181.725 203.968 181.053Z"/>
        <path fill="#5C546A" d="M265.007 253.061L226.39 268.647L204.89 247.147L240.199 211.838L268.164 239.803C270.133 241.764 270.937 244.608 270.289 247.311C269.648 250.014 267.648 252.193 265.007 253.061Z"/>
        <path fill="#5C546A" d="M351.489 77.962L374.075 100.548C374.466 100.939 375.099 100.939 375.489 100.548L430.761 45.276C431.152 44.885 431.152 44.252 430.761 43.862L408.175 21.276C407.784 20.885 407.151 20.885 406.761 21.276L351.489 76.548C351.099 76.938 351.099 77.571 351.489 77.962Z"/>
        <path fill="#5C546A" d="M164.406 412.568H199.156C203.578 412.568 207.156 408.99 207.156 404.568C207.156 400.146 203.578 396.568 199.156 396.568H164.406C160.195 396.568 156.07 394.857 153.093 391.88L134.468 373.255C131.343 370.13 126.28 370.13 123.155 373.255C120.03 376.38 120.03 381.443 123.155 384.568L141.78 403.193C147.734 409.154 155.984 412.568 164.406 412.568Z"/>
        <path fill="#868491" d="M323.934 212.566C326.067 221.266 327.155 230.288 327.155 239.514C327.155 289.378 294.401 331.735 249.278 346.2L263.117 392.172C327.982 371.749 375.155 311.038 375.155 239.514C375.155 224.928 373.143 210.475 369.265 196.57L323.934 212.566Z"/>
        <path fill="#5C546A" d="M74.875 246.912L97.5 224.287C100.625 221.162 105.688 221.162 108.812 224.287L220.125 335.6C222.578 338.053 223.172 341.811 221.594 344.897L206.281 374.835C205.117 377.116 202.929 378.702 200.398 379.101C199.984 379.164 199.57 379.195 199.156 379.195C197.054 379.195 195.008 378.367 193.5 376.851L74.875 258.226C71.75 255.1 71.75 250.037 74.875 246.912Z"/>
        <path fill="#868491" d="M58.875 326.912L81.5 304.287C84.625 301.162 89.688 301.162 92.813 304.287L147.438 358.912C150.563 362.037 150.563 367.1 147.438 370.225L124.813 392.85C123.25 394.413 121.204 395.194 119.157 395.194C117.11 395.194 115.063 394.413 113.501 392.85L58.876 338.225C55.75 335.1 55.75 330.037 58.875 326.912Z"/>
        <path fill="#B4B6BC" d="M231.156 332.568C253.211 332.568 271.156 350.513 271.156 372.568V460.568C271.156 464.99 267.578 468.568 263.156 468.568C258.734 468.568 255.156 464.99 255.156 460.568H207.156C207.156 464.99 203.578 468.568 199.156 468.568C194.734 468.568 191.156 464.99 191.156 460.568V372.568C191.156 350.514 209.101 332.568 231.156 332.568Z"/>
        <path fill="#B4B6BC" d="M200.226 183.162L317.617 66.221C326.969 56.885 342.187 56.866 351.555 66.225L385.5 100.166C390.031 104.701 392.531 110.729 392.531 117.139C392.531 123.549 390.031 129.576 385.5 134.108L372.812 146.792C369.687 149.917 364.625 149.917 361.501 146.793L309.373 198.919C309.38 198.926 309.391 198.929 309.398 198.936C312.507 202.069 312.492 207.139 309.351 210.249L268.14 251.14C266.585 252.687 264.546 253.46 262.507 253.46C260.46 253.46 258.413 252.679 256.851 251.116L200.218 194.483C198.718 192.983 197.874 190.944 197.874 188.819C197.874 186.694 198.726 184.654 200.226 183.162Z"/>
        <path fill="#868491" d="M309.351 210.248L268.14 251.139C266.585 252.686 264.546 253.459 262.507 253.459C260.46 253.459 258.413 252.678 256.851 251.115L228.886 223.15L368.684 83.353L385.499 100.166C390.03 104.701 392.53 110.729 392.53 117.139C392.53 123.549 390.03 129.576 385.499 134.108L372.811 146.792C369.686 149.917 364.624 149.917 361.5 146.793L309.372 198.919C309.379 198.926 309.39 198.929 309.397 198.936C312.507 202.068 312.492 207.139 309.351 210.248Z"/>
        <path fill="#868491" d="M175.156 452.568H287.156C304.804 452.568 319.156 466.92 319.156 484.568V500.568C319.156 504.99 315.578 508.568 311.156 508.568H151.156C146.734 508.568 143.156 504.99 143.156 500.568V484.568C143.156 466.92 157.507 452.568 175.156 452.568Z"/>
        <path fill="#5C546A" d="M335.155 220.568C308.645 220.568 287.155 199.078 287.155 172.568C287.155 146.058 308.645 124.568 335.155 124.568C361.665 124.568 383.155 146.058 383.155 172.568C383.155 199.078 361.665 220.568 335.155 220.568Z"/>
        <path fill="#868491" d="M335.155 196.568C321.9 196.568 311.155 185.823 311.155 172.568C311.155 159.313 321.9 148.568 335.155 148.568C348.41 148.568 359.155 159.313 359.155 172.568C359.155 185.823 348.41 196.568 335.155 196.568Z"/>
        <path fill="#5C546A" d="M231.468 388.568C222.631 388.568 215.468 381.405 215.468 372.568C215.468 363.731 222.631 356.568 231.468 356.568C240.305 356.568 247.468 363.731 247.468 372.568C247.468 381.405 240.305 388.568 231.468 388.568Z"/>
        <path fill="#868491" d="M393.125 24.971L427.066 58.912C430.19 62.036 435.256 62.036 438.38 58.912L449.694 47.598C452.818 44.474 452.818 39.408 449.694 36.284L415.752 2.343C412.628 -0.781 407.562 -0.781 404.438 2.343L393.124 13.657C390.001 16.781 390.001 21.846 393.125 24.971Z"/>
        <path fill="#5C546A" d="M432.723 19.314L449.694 36.284C452.818 39.408 452.818 44.473 449.694 47.597L438.38 58.911C435.256 62.035 430.191 62.035 427.067 58.911L410.096 41.94L432.723 19.314Z"/>
    </g>
    <defs>
        <clipPath id="clip0">
            <rect width="508.568" height="508.568" fill="white" transform="matrix(-1 0 0 1 508.568 0)"/>
        </clipPath>
    </defs>
</svg>
