<svg width="543" height="640" viewBox="0 0 543 640" fill="none" xmlns="http://www.w3.org/2000/svg">
<path d="M307.838 350.114C243.66 371.685 182.678 382.107 136.034 381.622C112.693 381.379 93.1714 378.405 78.6945 372.892C64.184 367.366 55.3206 359.536 52.0867 349.914C48.8528 340.293 51.1873 328.699 59.4143 315.53C67.6223 302.393 81.3845 288.232 99.8406 273.94C136.721 245.38 191.619 216.853 255.796 195.282C319.974 173.711 380.956 163.288 427.6 163.774C450.941 164.017 470.463 166.991 484.939 172.504C499.45 178.03 508.313 185.86 511.547 195.482C514.781 205.103 512.447 216.697 504.22 229.865C496.012 243.003 482.249 257.164 463.793 271.456C426.913 300.016 372.015 328.542 307.838 350.114Z" stroke="#55B2D5" stroke-width="8"/>
<path d="M145.65 473.817C107.353 417.984 80.6529 362.175 68.3665 317.176C62.218 294.658 59.7406 275.067 61.0852 259.635C62.4328 244.166 67.5414 233.499 75.9118 227.758C84.2822 222.017 96.0729 221.092 110.989 225.405C125.87 229.708 143.255 239.073 162.048 252.918C199.604 280.585 242.054 325.59 280.351 381.424C318.648 437.257 345.348 493.066 357.635 538.065C363.783 560.583 366.261 580.174 364.916 595.606C363.568 611.075 358.46 621.741 350.089 627.483C341.719 633.224 329.928 634.149 315.012 629.836C300.131 625.533 282.747 616.167 263.953 602.322C226.397 574.656 183.947 529.651 145.65 473.817Z" stroke="#C570BF" stroke-width="8"/>
<path d="M253.518 452.268C189.997 428.835 135.955 398.719 99.9225 369.096C81.891 354.272 68.5477 339.716 60.7263 326.344C52.8869 312.941 50.8915 301.284 54.4046 291.761C57.9178 282.238 67.0058 274.669 81.6712 269.569C96.3027 264.481 115.903 262.078 139.241 262.515C185.879 263.39 246.532 275.587 310.053 299.021C373.574 322.454 427.616 352.57 463.648 382.193C481.679 397.017 495.023 411.573 502.844 424.945C510.684 438.348 512.679 450.005 509.166 459.528C505.653 469.051 496.565 476.619 481.899 481.72C467.268 486.808 447.668 489.211 424.329 488.773C377.691 487.899 317.039 475.702 253.518 452.268Z" stroke="#F4EBAF" stroke-width="8"/>
<path d="M279.603 280.721C240.123 335.724 196.723 379.814 158.585 406.673C139.5 420.113 121.92 429.106 106.951 433.09C91.9459 437.084 80.1776 435.908 71.9316 429.989C63.6856 424.071 58.8058 413.297 57.7885 397.804C56.7735 382.346 59.6684 362.813 66.2959 340.43C79.5396 295.704 107.424 240.478 146.904 185.474C186.384 130.47 229.784 86.3808 267.922 59.5222C287.007 46.0814 304.587 37.0887 319.556 33.1043C334.561 29.1106 346.329 30.2867 354.575 36.2053C362.821 42.124 367.701 52.8973 368.719 68.391C369.733 83.8488 366.839 103.382 360.211 125.764C346.967 170.491 319.083 225.717 279.603 280.721Z" stroke="#EEA554" stroke-width="8"/>
<path d="M108.304 360V354.528H112.912C114 354.528 114.992 354.144 115.888 353.376C116.784 352.608 117.232 351.2 117.232 349.152V302.592C117.232 300.416 116.784 298.944 115.888 298.176C114.992 297.344 114 296.928 112.912 296.928H108.304V291.456H143.536V296.928H138.832C137.552 296.928 136.528 297.344 135.76 298.176C134.992 298.944 134.608 300.416 134.608 302.592V349.056C134.608 351.104 135.024 352.544 135.856 353.376C136.688 354.144 137.68 354.528 138.832 354.528H143.536V360H108.304ZM148.148 360V354.528H152.66C154.068 354.528 155.156 354.112 155.924 353.28C156.692 352.384 157.076 350.88 157.076 348.768V302.592C157.076 300.352 156.596 298.848 155.636 298.08C154.676 297.312 153.652 296.928 152.564 296.928H148.148V291.456H178.1C187.508 291.456 194.644 292.8 199.508 295.488C204.436 298.112 206.9 302.464 206.9 308.544C206.9 312.896 205.588 316.224 202.964 318.528C200.404 320.768 197.268 322.4 193.556 323.424V323.904C198.292 324.928 202.164 326.848 205.172 329.664C208.244 332.416 209.78 336.224 209.78 341.088C209.78 353.696 200.18 360 180.98 360H148.148ZM177.524 321.024C181.492 321.024 184.34 320.096 186.068 318.24C187.796 316.384 188.66 313.312 188.66 309.024C188.66 304.8 187.732 301.856 185.876 300.192C184.02 298.528 181.172 297.696 177.332 297.696H174.356V321.024H177.524ZM179.924 353.76C183.764 353.76 186.612 352.8 188.468 350.88C190.324 348.96 191.252 345.6 191.252 340.8C191.252 336.192 190.388 332.8 188.66 330.624C186.932 328.384 184.084 327.264 180.116 327.264H174.356V353.76H179.924ZM215.179 360V354.528H219.115C220.459 354.528 221.611 354.176 222.571 353.472C223.595 352.768 224.107 351.104 224.107 348.48V302.592C224.107 300.16 223.595 298.624 222.571 297.984C221.611 297.28 220.555 296.928 219.403 296.928H215.179V291.456H246.187C255.659 291.456 262.635 293.216 267.115 296.736C271.659 300.256 273.931 305.312 273.931 311.904C273.931 316 272.971 319.712 271.051 323.04C269.131 326.368 265.963 329.024 261.547 331.008C257.195 332.992 251.371 333.984 244.075 333.984H241.483V348.96C241.483 351.392 241.931 352.928 242.827 353.568C243.787 354.208 244.907 354.528 246.187 354.528H252.331V360H215.179ZM243.211 328.032C247.627 328.032 250.827 326.816 252.811 324.384C254.795 321.952 255.787 317.92 255.787 312.288C255.787 307.232 254.891 303.52 253.099 301.152C251.307 298.72 248.459 297.504 244.555 297.504H241.387V328.032H243.211ZM277.804 360V354.528H281.356C282.956 354.528 284.236 354.144 285.196 353.376C286.22 352.608 286.732 351.136 286.732 348.96V302.496C286.732 300.384 286.252 298.944 285.292 298.176C284.396 297.344 283.372 296.928 282.22 296.928H277.804V291.456H307.756L322.156 334.368L335.596 291.456H365.164V296.928H360.556C359.468 296.928 358.476 297.312 357.58 298.08C356.748 298.848 356.332 300.256 356.332 302.304V349.152C356.332 351.2 356.748 352.608 357.58 353.376C358.412 354.144 359.564 354.528 361.036 354.528H365.164V360H332.332V354.528H333.58C335.564 354.528 337.004 354.144 337.9 353.376C338.796 352.608 339.244 351.104 339.244 348.864V301.92L320.908 360H313.804L294.412 301.824V348.48C294.412 351.104 295.02 352.768 296.236 353.472C297.516 354.176 299.308 354.528 301.612 354.528H302.284V360H277.804Z" fill="#0070C0"/>
<path d="M450.864 316.296C448.08 316.296 445.952 317.336 444.48 319.416C443.008 321.496 442.272 324.344 442.272 327.96C442.272 331.608 442.944 334.44 444.288 336.456C445.664 338.44 447.856 339.432 450.864 339.432C452.272 339.432 453.664 339.272 455.04 338.952C456.448 338.632 457.968 338.184 459.6 337.608V343.704C458.096 344.312 456.608 344.76 455.136 345.048C453.664 345.336 452.016 345.48 450.192 345.48C446.672 345.48 443.76 344.76 441.456 343.32C439.184 341.848 437.504 339.8 436.416 337.176C435.328 334.52 434.784 331.432 434.784 327.912C434.784 324.456 435.408 321.4 436.656 318.744C437.904 316.088 439.712 314.008 442.08 312.504C444.48 311 447.408 310.248 450.864 310.248C452.56 310.248 454.256 310.472 455.952 310.92C457.68 311.336 459.328 311.912 460.896 312.648L458.544 318.552C457.264 317.944 455.968 317.416 454.656 316.968C453.376 316.52 452.112 316.296 450.864 316.296ZM497.267 345H488.051L473.123 319.08H472.931C472.995 320.712 473.059 322.344 473.123 323.976C473.219 325.608 473.299 327.24 473.363 328.872V345H466.883V310.728H476.051L490.931 336.408H491.075C491.043 334.808 490.995 333.224 490.931 331.656C490.867 330.088 490.803 328.52 490.739 326.952V310.728H497.267V345ZM515.913 310.728C520.585 310.728 524.025 311.576 526.233 313.272C528.473 314.968 529.593 317.544 529.593 321C529.593 322.568 529.289 323.944 528.681 325.128C528.105 326.28 527.321 327.272 526.329 328.104C525.369 328.904 524.329 329.56 523.209 330.072L533.289 345H525.225L517.065 331.848H513.177V345H505.929V310.728H515.913ZM515.385 316.68H513.177V325.944H515.529C517.929 325.944 519.641 325.544 520.665 324.744C521.721 323.944 522.249 322.76 522.249 321.192C522.249 319.56 521.689 318.408 520.569 317.736C519.481 317.032 517.753 316.68 515.385 316.68Z" fill="#818281"/>
</svg>
