<svg width="683" height="697" viewBox="0 0 683 697" fill="none" xmlns="http://www.w3.org/2000/svg">
<ellipse cx="341.5" cy="349.5" rx="341.5" ry="335.5" fill="white"/>
<path d="M414.603 297.721C375.124 352.724 331.723 396.814 293.585 423.673C274.5 437.113 256.92 446.106 241.951 450.09C226.946 454.084 215.178 452.908 206.932 446.989C198.686 441.071 193.806 430.297 192.789 414.804C191.774 399.346 194.668 379.813 201.296 357.43C214.54 312.704 242.424 257.478 281.904 202.474C321.384 147.47 364.784 103.381 402.922 76.5222C422.007 63.0814 439.587 54.0887 454.556 50.1043C469.561 46.1106 481.329 47.2867 489.575 53.2053C497.821 59.124 502.701 69.8973 503.719 85.391C504.733 100.849 501.839 120.382 495.211 142.764C481.967 187.491 454.083 242.717 414.603 297.721Z" stroke="#EEA554" stroke-width="8"/>
<path d="M442.838 367.114C378.66 388.685 317.678 399.107 271.034 398.622C247.693 398.379 228.171 395.405 213.694 389.892C199.184 384.366 190.321 376.536 187.087 366.914C183.853 357.293 186.187 345.699 194.414 332.53C202.622 319.393 216.384 305.232 234.841 290.94C271.721 262.38 326.619 233.853 390.796 212.282C454.974 190.711 515.956 180.288 562.6 180.774C585.941 181.017 605.462 183.991 619.939 189.504C634.45 195.03 643.313 202.86 646.547 212.482C649.781 222.103 647.447 233.697 639.22 246.865C631.012 260.003 617.249 274.164 598.793 288.456C561.913 317.016 507.015 345.542 442.838 367.114Z" stroke="#55B2D5" stroke-width="8"/>
<path d="M388.518 469.268C324.997 445.835 270.955 415.719 234.922 386.096C216.891 371.272 203.548 356.716 195.726 343.344C187.887 329.941 185.892 318.284 189.405 308.761C192.918 299.238 202.006 291.67 216.671 286.569C231.303 281.481 250.903 279.078 274.241 279.515C320.879 280.39 381.532 292.587 445.053 316.021C508.574 339.454 562.616 369.57 598.648 399.193C616.679 414.017 630.023 428.573 637.844 441.945C645.684 455.348 647.679 467.005 644.166 476.528C640.653 486.051 631.565 493.619 616.899 498.72C602.268 503.808 582.668 506.211 559.329 505.773C512.691 504.899 452.039 492.702 388.518 469.268Z" stroke="#F4EBAF" stroke-width="8"/>
<path d="M280.65 490.817C242.353 434.984 215.653 379.175 203.366 334.176C197.218 311.658 194.741 292.067 196.085 276.635C197.433 261.166 202.541 250.499 210.912 244.758C219.282 239.017 231.073 238.092 245.989 242.405C260.87 246.708 278.255 256.073 297.048 269.918C334.604 297.585 377.054 342.59 415.351 398.424C453.648 454.257 480.348 510.066 492.635 555.065C498.783 577.583 501.261 597.174 499.916 612.606C498.568 628.075 493.46 638.741 485.089 644.483C476.719 650.224 464.928 651.149 450.012 646.836C435.131 642.533 417.747 633.167 398.953 619.322C361.397 591.656 318.947 546.651 280.65 490.817Z" stroke="#C570BF" stroke-width="8"/>
<path d="M243.304 377V371.528H247.912C249 371.528 249.992 371.144 250.888 370.376C251.784 369.608 252.232 368.2 252.232 366.152V319.592C252.232 317.416 251.784 315.944 250.888 315.176C249.992 314.344 249 313.928 247.912 313.928H243.304V308.456H278.536V313.928H273.832C272.552 313.928 271.528 314.344 270.76 315.176C269.992 315.944 269.608 317.416 269.608 319.592V366.056C269.608 368.104 270.024 369.544 270.856 370.376C271.688 371.144 272.68 371.528 273.832 371.528H278.536V377H243.304ZM283.148 377V371.528H287.66C289.068 371.528 290.156 371.112 290.924 370.28C291.692 369.384 292.076 367.88 292.076 365.768V319.592C292.076 317.352 291.596 315.848 290.636 315.08C289.676 314.312 288.652 313.928 287.564 313.928H283.148V308.456H313.1C322.508 308.456 329.644 309.8 334.508 312.488C339.436 315.112 341.9 319.464 341.9 325.544C341.9 329.896 340.588 333.224 337.964 335.528C335.404 337.768 332.268 339.4 328.556 340.424V340.904C333.292 341.928 337.164 343.848 340.172 346.664C343.244 349.416 344.78 353.224 344.78 358.088C344.78 370.696 335.18 377 315.98 377H283.148ZM312.524 338.024C316.492 338.024 319.34 337.096 321.068 335.24C322.796 333.384 323.66 330.312 323.66 326.024C323.66 321.8 322.732 318.856 320.876 317.192C319.02 315.528 316.172 314.696 312.332 314.696H309.356V338.024H312.524ZM314.924 370.76C318.764 370.76 321.612 369.8 323.468 367.88C325.324 365.96 326.252 362.6 326.252 357.8C326.252 353.192 325.388 349.8 323.66 347.624C321.932 345.384 319.084 344.264 315.116 344.264H309.356V370.76H314.924ZM350.179 377V371.528H354.115C355.459 371.528 356.611 371.176 357.571 370.472C358.595 369.768 359.107 368.104 359.107 365.48V319.592C359.107 317.16 358.595 315.624 357.571 314.984C356.611 314.28 355.555 313.928 354.403 313.928H350.179V308.456H381.187C390.659 308.456 397.635 310.216 402.115 313.736C406.659 317.256 408.931 322.312 408.931 328.904C408.931 333 407.971 336.712 406.051 340.04C404.131 343.368 400.963 346.024 396.547 348.008C392.195 349.992 386.371 350.984 379.075 350.984H376.483V365.96C376.483 368.392 376.931 369.928 377.827 370.568C378.787 371.208 379.907 371.528 381.187 371.528H387.331V377H350.179ZM378.211 345.032C382.627 345.032 385.827 343.816 387.811 341.384C389.795 338.952 390.787 334.92 390.787 329.288C390.787 324.232 389.891 320.52 388.099 318.152C386.307 315.72 383.459 314.504 379.555 314.504H376.387V345.032H378.211ZM412.804 377V371.528H416.356C417.956 371.528 419.236 371.144 420.196 370.376C421.22 369.608 421.732 368.136 421.732 365.96V319.496C421.732 317.384 421.252 315.944 420.292 315.176C419.396 314.344 418.372 313.928 417.22 313.928H412.804V308.456H442.756L457.156 351.368L470.596 308.456H500.164V313.928H495.556C494.468 313.928 493.476 314.312 492.58 315.08C491.748 315.848 491.332 317.256 491.332 319.304V366.152C491.332 368.2 491.748 369.608 492.58 370.376C493.412 371.144 494.564 371.528 496.036 371.528H500.164V377H467.332V371.528H468.58C470.564 371.528 472.004 371.144 472.9 370.376C473.796 369.608 474.244 368.104 474.244 365.864V318.92L455.908 377H448.804L429.412 318.824V365.48C429.412 368.104 430.02 369.768 431.236 370.472C432.516 371.176 434.308 371.528 436.612 371.528H437.284V377H412.804Z" fill="#0070C0"/>
<path d="M585.864 333.296C583.08 333.296 580.952 334.336 579.48 336.416C578.008 338.496 577.272 341.344 577.272 344.96C577.272 348.608 577.944 351.44 579.288 353.456C580.664 355.44 582.856 356.432 585.864 356.432C587.272 356.432 588.664 356.272 590.04 355.952C591.448 355.632 592.968 355.184 594.6 354.608V360.704C593.096 361.312 591.608 361.76 590.136 362.048C588.664 362.336 587.016 362.48 585.192 362.48C581.672 362.48 578.76 361.76 576.456 360.32C574.184 358.848 572.504 356.8 571.416 354.176C570.328 351.52 569.784 348.432 569.784 344.912C569.784 341.456 570.408 338.4 571.656 335.744C572.904 333.088 574.712 331.008 577.08 329.504C579.48 328 582.408 327.248 585.864 327.248C587.56 327.248 589.256 327.472 590.952 327.92C592.68 328.336 594.328 328.912 595.896 329.648L593.544 335.552C592.264 334.944 590.968 334.416 589.656 333.968C588.376 333.52 587.112 333.296 585.864 333.296ZM632.267 362H623.051L608.123 336.08H607.931C607.995 337.712 608.059 339.344 608.123 340.976C608.219 342.608 608.299 344.24 608.363 345.872V362H601.883V327.728H611.051L625.931 353.408H626.075C626.043 351.808 625.995 350.224 625.931 348.656C625.867 347.088 625.803 345.52 625.739 343.952V327.728H632.267V362ZM650.913 327.728C655.585 327.728 659.025 328.576 661.233 330.272C663.473 331.968 664.593 334.544 664.593 338C664.593 339.568 664.289 340.944 663.681 342.128C663.105 343.28 662.321 344.272 661.329 345.104C660.369 345.904 659.329 346.56 658.209 347.072L668.289 362H660.225L652.065 348.848H648.177V362H640.929V327.728H650.913ZM650.385 333.68H648.177V342.944H650.529C652.929 342.944 654.641 342.544 655.665 341.744C656.721 340.944 657.249 339.76 657.249 338.192C657.249 336.56 656.689 335.408 655.569 334.736C654.481 334.032 652.753 333.68 650.385 333.68Z" fill="#818281"/>
</svg>
